inDegrees=yes
name=ik_S44_A09_T02
DataType=double
version=3
OpenSimVersion=4.3-2021-08-27-4bc7ad9
endheader
time	pelvis_tilt	pelvis_list	pelvis_rotation	pelvis_tx	pelvis_ty	pelvis_tz	hip_flexion_r	hip_adduction_r	hip_rotation_r	knee_angle_r	knee_angle_r_beta	ankle_angle_r	subtalar_angle_r	mtp_angle_r	hip_flexion_l	hip_adduction_l	hip_rotation_l	knee_angle_l	knee_angle_l_beta	ankle_angle_l	subtalar_angle_l	mtp_angle_l	lumbar_extension	lumbar_bending	lumbar_rotation	arm_flex_r	arm_add_r	arm_rot_r	elbow_flex_r	pro_sup_r	wrist_flex_r	wrist_dev_r	arm_flex_l	arm_add_l	arm_rot_l	elbow_flex_l	pro_sup_l	wrist_flex_l	wrist_dev_l
20.97999999999964	-8.803087326671388	-4.044578127911992	35.39888378735051	0	0.9399999999999999	0	38.42079590099438	-10.18594809299127	-9.96732777222744	44.18927640614803	0.7712483673611302	0	0	0	38.42079590099438	-10.18594809299127	-9.96732777222744	44.18927640614803	0.7712483673611302	0	0	0	-8.448380881470468	-2.204010969969177	0.6567890282955452	71.17379935173344	-10.03439295254269	11.38381017429525	26.70893158060803	104.9388685917908	0	0	75.74383451567594	13.84907638797765	2.317175867279722	24.62038927318468	117.2148486295354	0	0
20.99999999999964	-8.796873702303142	-4.034528625642449	35.39840446526854	0	0.9399999999999999	0	38.4233130490489	-10.18570324872118	-9.967355434593147	44.19212086752958	0.771298012577684	0	0	0	38.4233130490489	-10.18570324872118	-9.967355434593147	44.19212086752958	0.771298012577684	0	0	0	-8.438529299615194	-2.19792839094783	0.6541997888119517	71.16471275500918	-10.03758167155047	11.3897920558979	26.67576092162684	105.1711612143165	0	0	75.93215405194626	13.76083906349411	2.512751590300602	24.78434607052407	118.5713097846497	0	0
21.01999999999964	-8.781871559456036	-4.001516755607662	35.43711051921147	0	0.9399999999999999	0	38.42506113559266	-10.1855328088568	-9.967374678225548	44.19409047561383	0.771332388723728	0	0	0	38.42506113559266	-10.1855328088568	-9.967374678225548	44.19409047561383	0.771332388723728	0	0	0	-8.411982381611601	-2.164554065571326	0.5806233110697638	70.97900087457086	-9.541633225781975	11.33074419855045	26.46591260205734	105.3347099666064	0	0	75.88973130404642	13.71238227625868	2.460627021072573	24.77074270026974	119.2639040633101	0	0
21.03999999999964	-8.77026663691124	-3.966378571260339	35.53640870580113	0	0.9399999999999999	0	38.42704742292945	-10.18533908133151	-9.967396551217634	44.19632656795471	0.7713714158974552	0	0	0	38.42704742292945	-10.18533908133151	-9.967396551217634	44.19632656795471	0.7713714158974552	0	0	0	-8.387371624146457	-2.126127005489641	0.499202298056127	70.78603077252664	-9.034939443582864	11.6791010928052	26.13705961563369	104.514663983899	0	0	76.00881206984015	13.71909214087025	2.569803470103754	24.55555016726064	119.3109885173475	0	0
21.05999999999964	-8.763765811062397	-3.935946349197371	35.65330208092622	0	0.9399999999999999	0	38.4300636396634	-10.18504495389231	-9.96742976705049	44.19972013755107	0.7714306448603071	0	0	0	38.4300636396634	-10.18504495389231	-9.96742976705049	44.19972013755107	0.7714306448603071	0	0	0	-8.37138267073971	-2.08164887640708	0.3841720147144247	70.65097478558809	-8.797503780659335	12.54241697225598	25.90834064036208	103.1038471867906	0	0	75.98993960191927	13.75228047651594	2.530454772122889	24.52163792404961	119.3700027141426	0	0
21.07999999999964	-8.759587185627062	-3.904727253646123	35.7565587997464	0	0.9399999999999999	0	38.43273697674481	-10.1847859419398	-9.967459086704348	44.20274351412558	0.77148341273606	0	0	0	38.43273697674481	-10.1847859419398	-9.967459086704348	44.20274351412558	0.77148341273606	0	0	0	-8.356506044736431	-2.036583043347139	0.2755676835352423	70.42007892980467	-8.612063223667178	13.08065706154801	25.83701631297309	102.368770882525	0	0	76.20395991186201	13.70828017883308	2.786713106431075	24.34980080713708	118.655142116778	0	0
21.09999999999964	-8.725817580387693	-3.828343363629433	35.83538100642261	0	0.9399999999999999	0	38.43440014797199	-10.18462582081351	-9.967477253719281	44.20463427241845	0.77151641269363	0	0	0	38.43440014797199	-10.18462582081351	-9.967477253719281	44.20463427241845	0.77151641269363	0	0	0	-8.286672462364733	-1.986832539835618	0.2408561285221208	70.00967796977463	-8.498630989154607	13.32525329410851	25.86329502498467	102.0885202569001	0	0	76.11728909604567	13.81631765564296	2.787140277322533	24.31003438783016	118.3950684065796	0	0
21.11999999999964	-8.711656680719374	-3.827565862779915	35.90367004803707	0	0.9399999999999999	0	38.43671505442002	-10.18440098646757	-9.967502690043982	44.2072429975154	0.7715619435358512	0	0	0	38.43671505442002	-10.18440098646757	-9.967502690043982	44.2072429975154	0.7715619435358512	0	0	0	-8.278618790757301	-1.980711575422808	0.1721971367667026	69.81287882022862	-8.276381380395296	13.66097363948309	25.76256944409591	101.2746317877156	0	0	76.16804759710935	13.81178801334661	2.735704234273879	24.28048374322594	118.3999489846835	0	0
21.13999999999964	-8.690504111008343	-3.808095749062029	36.06249018572873	0	0.9399999999999999	0	38.43932246284835	-10.18414697856286	-9.967531401571954	44.21017106679168	0.7716130479854487	0	0	0	38.43932246284835	-10.18414697856286	-9.967531401571954	44.21017106679168	0.7716130479854487	0	0	0	-8.256549217624576	-1.954719263487242	0.05620560905660162	69.63721530928869	-7.898282686699943	14.85909320971763	25.54565733179967	99.93802891875069	0	0	76.22836131007315	13.82808431411011	2.543978391809202	24.28179594504512	118.9116582428837	0	0
21.15999999999964	-8.667238151049588	-3.787967606491657	36.13061746040506	0	0.9399999999999999	0	38.43791850171858	-10.18491341728159	-9.967474037451145	44.20993248502359	0.7716088839480604	0	0	0	38.43791850171858	-10.18491341728159	-9.967474037451145	44.20993248502359	0.7716088839480604	0	0	0	-8.227333927826393	-1.947155912454916	0.02757658840488489	69.53649469366493	-7.891734778664149	14.73463561913214	25.47849558491903	100.1028998021245	0	0	76.23812697536243	13.88717711829828	2.34572457532978	24.1867969730255	119.3422351850508	0	0
21.17999999999964	-8.633100300219295	-3.785928366918195	36.06875353376622	0	0.9399999999999999	0	38.44098268664746	-10.18461621182739	-9.967507651128146	44.21339713975446	0.7716693535805589	0	0	0	38.44098268664746	-10.18461621182739	-9.967507651128146	44.21339713975446	0.7716693535805589	0	0	0	-8.194731542152299	-1.978016821782814	0.09765199701759654	69.50751250030351	-7.860029611911822	14.54898185501647	25.09596292035427	99.66398076049634	0	0	76.25097571277033	14.06110439257314	2.115973381913487	24.27157063791041	118.6597082108386	0	0
21.19999999999964	-8.629199273652688	-3.780932416652153	36.13162474781465	0	0.9399999999999999	0	38.44420855350425	-10.18430445750154	-9.967542961817411	44.21705286113804	0.7717331579552378	0	0	0	38.44420855350425	-10.18430445750154	-9.967542961817411	44.21705286113804	0.7717331579552378	0	0	0	-8.191004279549214	-1.966241498333648	0.04907286607835318	69.56085509772662	-7.725212236022156	14.73364959102142	24.92983729370276	99.3196129409576	0	0	76.33233564331077	14.18124834266803	2.067252681416999	24.60811195426595	117.3141846729823	0	0
21.21999999999964	-8.606299410347495	-3.771174062161229	36.15553023571696	0	0.9399999999999999	0	38.44683581131214	-10.18405112218562	-9.967571682400093	44.22003395500447	0.771785187858518	0	0	0	38.44683581131214	-10.18405112218562	-9.967571682400093	44.22003395500447	0.771785187858518	0	0	0	-8.166443135538612	-1.97079916836489	0.04405213146133734	69.61858212155579	-7.601942204223482	14.91947251471104	24.67331232916855	99.02505894689095	0	0	76.38055921854452	14.38610978637542	2.024931579448548	24.83253351863149	116.0719000533675	0	0
21.23999999999964	-8.585963762485829	-3.770483014564204	36.06510082704757	0	0.9399999999999999	0	38.45097194953852	-10.18365358438758	-9.967616810663641	44.22473634388471	0.7718672600271873	0	0	0	38.45097194953852	-10.18365358438758	-9.967616810663641	44.22473634388471	0.7718672600271873	0	0	0	-8.14285392234661	-2.000533461506303	0.1266702114065048	69.5927835907704	-7.590811297078998	14.89066622391086	24.60754294681342	98.98748865226469	0	0	76.31919213564635	14.393387928635	2.111615624358644	26.10338701160518	111.5926061247561	0	0
